HIERARCHY
ROOT Hips
{
  OFFSET 19.628 23.566 -241.020
  CHANNELS 6 Xposition Yposition Zposition Zrotation Xrotation Yrotation
  JOINT LeftUpLeg
  {
    OFFSET 6.587 -5.169 3.927
    CHANNELS 6 Xposition Yposition Zposition Zrotation Xrotation Yrotation
    JOINT LeftLeg
    {
      OFFSET -0.000 -47.496 0.000
      CHANNELS 6 Xposition Yposition Zposition Zrotation Xrotation Yrotation
      JOINT LeftFoot
      {
        OFFSET -0.000 -38.772 -0.000
        CHANNELS 6 Xposition Yposition Zposition Zrotation Xrotation Yrotation
        End Site
        {
          OFFSET 0.000 -7.694 4.442
        }
      }
    }
  }
  JOINT RightUpLeg
  {
    OFFSET -6.456 -5.134 4.969
    CHANNELS 6 Xposition Yposition Zposition Zrotation Xrotation Yrotation
    JOINT RightLeg
    {
      OFFSET -0.000 -47.475 0.000
      CHANNELS 6 Xposition Yposition Zposition Zrotation Xrotation Yrotation
      JOINT RightFoot
      {
        OFFSET -0.000 -37.511 -0.000
        CHANNELS 6 Xposition Yposition Zposition Zrotation Xrotation Yrotation
        End Site
        {
          OFFSET 0.000 -7.939 4.584
        }
      }
    }
  }
  JOINT Spine
  {
    OFFSET 0.000 4.817 -4.817
    CHANNELS 6 Xposition Yposition Zposition Zrotation Xrotation Yrotation
    JOINT LeftShoulder
    {
      OFFSET -0.000 35.244 0.000
      CHANNELS 6 Xposition Yposition Zposition Zrotation Xrotation Yrotation
      JOINT LeftArm
      {
        OFFSET 17.958 0.000 -0.000
        CHANNELS 6 Xposition Yposition Zposition Zrotation Xrotation Yrotation
        JOINT LeftForeArm
        {
          OFFSET 21.540 0.000 0.000
          CHANNELS 6 Xposition Yposition Zposition Zrotation Xrotation Yrotation
          JOINT LeftHand
          {
            OFFSET 25.594 -0.000 -0.000
            CHANNELS 6 Xposition Yposition Zposition Zrotation Xrotation Yrotation
            JOINT LeftHandThumb1
            {
            OFFSET 4.970 -0.620 3.390
            CHANNELS 6 Xposition Yposition Zposition Zrotation Xrotation Yrotation
              JOINT LeftHandThumb2
              {
              OFFSET 2.150 -0.000 0.000
              CHANNELS 6 Xposition Yposition Zposition Zrotation Xrotation Yrotation
                JOINT LeftHandThumb3
                {
                OFFSET 2.200 -0.000 0.000
                CHANNELS 6 Xposition Yposition Zposition Zrotation Xrotation Yrotation
                  JOINT LeftHandThumb4
                  {
                  OFFSET 1.700 -0.000 0.000
                  CHANNELS 6 Xposition Yposition Zposition Zrotation Xrotation Yrotation
                  }
                }
              }
            }
            JOINT LeftHandIndex1
            {
            OFFSET 8.730 0.680 2.070
            CHANNELS 6 Xposition Yposition Zposition Zrotation Xrotation Yrotation
              JOINT LeftHandIndex2
              {
              OFFSET 2.670 -0.000 0.000
              CHANNELS 6 Xposition Yposition Zposition Zrotation Xrotation Yrotation
                JOINT LeftHandIndex3
                {
                OFFSET 2.130 -0.000 0.000
                CHANNELS 6 Xposition Yposition Zposition Zrotation Xrotation Yrotation
                  JOINT LeftHandIndex4
                  {
                  OFFSET 1.800 -0.000 0.000
                  CHANNELS 6 Xposition Yposition Zposition Zrotation Xrotation Yrotation
                  }
                }
              }
            }
            JOINT LeftHandMiddle1
            {
            OFFSET 9.220 0.670 0.550
            CHANNELS 6 Xposition Yposition Zposition Zrotation Xrotation Yrotation
              JOINT LeftHandMiddle2
              {
              OFFSET 2.660 -0.000 0.000
              CHANNELS 6 Xposition Yposition Zposition Zrotation Xrotation Yrotation
                JOINT LeftHandMiddle3
                {
                OFFSET 2.280 -0.000 0.000
                CHANNELS 6 Xposition Yposition Zposition Zrotation Xrotation Yrotation
                  JOINT LeftHandMiddle4
                  {
                  OFFSET 1.500 -0.000 0.000
                  CHANNELS 6 Xposition Yposition Zposition Zrotation Xrotation Yrotation
                  }
                }
              }
            }
            JOINT LeftHandRing1
            {
            OFFSET 9.250 0.670 -1.130
            CHANNELS 6 Xposition Yposition Zposition Zrotation Xrotation Yrotation
              JOINT LeftHandRing2
              {
              OFFSET 2.470 -0.000 0.000
              CHANNELS 6 Xposition Yposition Zposition Zrotation Xrotation Yrotation
                JOINT LeftHandRing3
                {
                OFFSET 2.210 -0.000 0.000
                CHANNELS 6 Xposition Yposition Zposition Zrotation Xrotation Yrotation
                  JOINT LeftHandRing4
                  {
                  OFFSET 1.800 -0.000 0.000
                  CHANNELS 6 Xposition Yposition Zposition Zrotation Xrotation Yrotation
                  }
                }
              }
            }
            JOINT LeftHandPinky1
            {
            OFFSET 9.350 0.660 -2.720
            CHANNELS 6 Xposition Yposition Zposition Zrotation Xrotation Yrotation
              JOINT LeftHandPinky2
              {
              OFFSET 1.630 -0.000 0.000
              CHANNELS 6 Xposition Yposition Zposition Zrotation Xrotation Yrotation
                JOINT LeftHandPinky3
                {
                OFFSET 1.710 -0.000 0.000
                CHANNELS 6 Xposition Yposition Zposition Zrotation Xrotation Yrotation
                  JOINT LeftHandPinky4
                  {
                  OFFSET 1.800 -0.000 0.000
                  CHANNELS 6 Xposition Yposition Zposition Zrotation Xrotation Yrotation
                  }
                }
              }
            }
          }
        }
      }
    }
    JOINT RightShoulder
    {
      OFFSET -0.000 35.244 0.000
      CHANNELS 6 Xposition Yposition Zposition Zrotation Xrotation Yrotation
      JOINT RightArm
      {
        OFFSET -20.459 0.000 -0.000
        CHANNELS 6 Xposition Yposition Zposition Zrotation Xrotation Yrotation
        JOINT RightForeArm
        {
          OFFSET -20.145 0.000 0.000
          CHANNELS 6 Xposition Yposition Zposition Zrotation Xrotation Yrotation
          JOINT RightHand
          {
            OFFSET -24.153 0.000 -0.000
            CHANNELS 6 Xposition Yposition Zposition Zrotation Xrotation Yrotation
            JOINT RightHandThumb1
            {
            OFFSET -4.970 -0.620 3.390
            CHANNELS 6 Xposition Yposition Zposition Zrotation Xrotation Yrotation
              JOINT RightHandThumb2
              {
              OFFSET -2.150 0.000 0.000
              CHANNELS 6 Xposition Yposition Zposition Zrotation Xrotation Yrotation
                JOINT RightHandThumb3
                {
                OFFSET -2.200 0.000 0.000
                CHANNELS 6 Xposition Yposition Zposition Zrotation Xrotation Yrotation
                  JOINT RightHandThumb4
                  {
                  OFFSET -1.700 0.000 0.000
                  CHANNELS 6 Xposition Yposition Zposition Zrotation Xrotation Yrotation
                  }
                }
              }
            }
            JOINT RightHandIndex1
            {
            OFFSET -8.730 0.680 2.070
            CHANNELS 6 Xposition Yposition Zposition Zrotation Xrotation Yrotation
              JOINT RightHandIndex2
              {
              OFFSET -2.670 0.000 0.000
              CHANNELS 6 Xposition Yposition Zposition Zrotation Xrotation Yrotation
                JOINT RightHandIndex3
                {
                OFFSET -2.130 0.000 0.000
                CHANNELS 6 Xposition Yposition Zposition Zrotation Xrotation Yrotation
                  JOINT RightHandIndex4
                  {
                  OFFSET -1.800 0.000 0.000
                  CHANNELS 6 Xposition Yposition Zposition Zrotation Xrotation Yrotation
                  }
                }
              }
            }
            JOINT RightHandMiddle1
            {
            OFFSET -9.220 0.670 0.550
            CHANNELS 6 Xposition Yposition Zposition Zrotation Xrotation Yrotation
              JOINT RightHandMiddle2
              {
              OFFSET -2.660 0.000 0.000
              CHANNELS 6 Xposition Yposition Zposition Zrotation Xrotation Yrotation
                JOINT RightHandMiddle3
                {
                OFFSET -2.280 0.000 0.000
                CHANNELS 6 Xposition Yposition Zposition Zrotation Xrotation Yrotation
                  JOINT RightHandMiddle4
                  {
                  OFFSET -1.500 0.000 0.000
                  CHANNELS 6 Xposition Yposition Zposition Zrotation Xrotation Yrotation
                  }
                }
              }
            }
            JOINT RightHandRing1
            {
            OFFSET -9.250 0.670 -1.130
            CHANNELS 6 Xposition Yposition Zposition Zrotation Xrotation Yrotation
              JOINT RightHandRing2
              {
              OFFSET -2.470 0.000 0.000
              CHANNELS 6 Xposition Yposition Zposition Zrotation Xrotation Yrotation
                JOINT RightHandRing3
                {
                OFFSET -2.210 0.000 0.000
                CHANNELS 6 Xposition Yposition Zposition Zrotation Xrotation Yrotation
                  JOINT RightHandRing4
                  {
                  OFFSET -1.800 0.000 0.000
                  CHANNELS 6 Xposition Yposition Zposition Zrotation Xrotation Yrotation
                  }
                }
              }
            }
            JOINT RightHandPinky1
            {
            OFFSET -9.350 0.660 -2.720
            CHANNELS 6 Xposition Yposition Zposition Zrotation Xrotation Yrotation
              JOINT RightHandPinky2
              {
              OFFSET -1.630 0.000 0.000
              CHANNELS 6 Xposition Yposition Zposition Zrotation Xrotation Yrotation
                JOINT RightHandPinky3
                {
                OFFSET -1.710 0.000 0.000
                CHANNELS 6 Xposition Yposition Zposition Zrotation Xrotation Yrotation
                  JOINT RightHandPinky4
                  {
                  OFFSET -1.800 0.000 0.000
                  CHANNELS 6 Xposition Yposition Zposition Zrotation Xrotation Yrotation
                  }
                }
              }
            }
          }
        }
      }
    }
    JOINT Neck
    {
      OFFSET -0.000 35.244 0.000
      CHANNELS 6 Xposition Yposition Zposition Zrotation Xrotation Yrotation
      JOINT Head
      {
        OFFSET -0.000 16.368 -0.000
        CHANNELS 6 Xposition Yposition Zposition Zrotation Xrotation Yrotation
        End Site
        {
          OFFSET -0.000 0.065 -0.000
        }
      }
    }
  }
}
MOTION
Frames:	5
Frame Time:	0.0333333
14.5606 22.0495 -249.496 6.52417 39.829 -15.1891 6.71881 -5.46187 3.79543 11.9721 -54.2494 15.3396 2.23517e-06 -47.4404 0 -3.67031 19.2514 -1.80869e-06 -2.03727e-08 -37.6975 -4.76837e-05 -0.563708 -19.2343 -0.402099 -6.52111 -5.11709 5.35983 0.473758 -39.3788 2.72176 0 -45.5808 0 9.81947 27.9404 -9.66425e-07 -2.98023e-06 -39.0201 0 -9.45269 1.82257 -4.96725 -2.98023e-06 4.72368 -4.72372 0.476526 -38.5028 0.825035 0 35.2446 2.38419e-05 -36.2959 8.53774e-06 7.83006 18.0235 -4.47035e-06 0 -37.5095 38.1329 11.3419 21.0143 -1.19209e-05 2.38419e-05 -1.48082e-05 -7.06425e-06 -108.458 26.8031 1.19209e-05 2.98023e-06 11.3341 -0.470238 -11.4495 0.0062 0.0497 0.0339 -45 0 0 0 0.0215 0 0 -45 0 0 0.022 0 0 -45 0 0 0.017 0 0 0 0 -0.0068 0.0873 0.0207 -45 0 0 0 0.0267 0 -80 0 0 0 0.0213 0 -90 0 0 0 0.018 0 0 0 0 -0.0067 0.0922 0.0055 -45 0 0 0 0.0266 0 -80 0 0 0 0.0228 0 -90 0 0 0 0.015 0 0 0 0 -0.0067 0.0925 -0.0113 -45 0 0 0 0.0247 0 -80 0 0 0 0.0221 0 -90 0 0 0 0.018 0 0 0 0 -0.0066 0.0935 -0.0272 -45 0 0 0 0.0163 0 -80 0 0 0 0.0171 0 -90 0 0 0 0.018 0 0 0 0 0 35.2446 2.38419e-05 37.0914 -5.54953e-06 -6.54181 -21.5526 1.19209e-05 -4.76837e-05 32.7821 38.9767 2.45016 -19.7734 1.78814e-05 2.38419e-05 -4.12122e-05 5.4031e-06 94.8971 -22.9258 1.78814e-05 -9.68575e-06 -21.2179 0.658377 -15.5412 -0.0062 0.0497 0.0339 45 0 0 0 0.0215 0 0 -45 0 0 0.022 0 0 -45 0 0 0.017 0 0 0 0 0.0068 0.0873 0.0207 45 0 0 0 0.0267 0 80 0 0 0 0.0213 0 90 0 0 0 0.018 0 0 0 0 0.0067 0.0922 0.0055 45 0 0 0 0.0266 0 80 0 0 0 0.0228 0 90 0 0 0 0.015 0 0 0 0 0.0067 0.0925 -0.0113 45 0 0 0 0.0247 0 80 0 0 0 0.0221 0 90 0 0 0 0.018 0 0 0 0 0.0066 0.0935 -0.0272 45 0 0 0 0.0163 0 80 0 0 0 0.0171 0 90 0 0 0 0.018 0 0 0 0 0 35.2446 2.38419e-05 9.9571 1.92955 -0.338677 -1.49012e-05 16.537 4.76837e-05 7.20371e-06 -9.81839e-06 1.70755e-06 
15.0004 21.8321 -251.592 5.30849 41.3847 -13.2574 6.83125 -5.41828 3.87865 15.3082 -59.9551 18.1405 -6.70552e-06 -46.4274 -2.38419e-05 -4.84212 24.2579 0 -2.6077e-06 -38.9751 0 -0.792435 -19.1838 -0.611759 -6.62117 -5.30045 5.41078 1.12157 -38.1075 2.78344 -2.98023e-06 -45.9147 0 10.7339 22.6867 0 -2.98023e-06 -36.9371 -4.76837e-05 -10.5381 2.12259 -5.50675 8.9407e-06 4.67941 -4.67939 0.534219 -39.0004 0.822954 -2.98023e-06 35.2446 -2.38419e-05 -36.8638 6.83019e-06 7.18548 18.4134 1.19209e-05 -4.76837e-05 -36.766 38.4543 10.541 20.6598 2.38419e-05 4.76837e-05 -1.2747e-05 6.31843e-06 -106.451 26.861 0 2.68221e-05 10.1487 -0.35133 -12.8785 0.0062 0.0497 0.0339 -45 0 0 0 0.0215 0 0 -45 0 0 0.022 0 0 -45 0 0 0.017 0 0 0 0 -0.0068 0.0873 0.0207 -45 0 0 0 0.0267 0 -80 0 0 0 0.0213 0 -90 0 0 0 0.018 0 0 0 0 -0.0067 0.0922 0.0055 -45 0 0 0 0.0266 0 -80 0 0 0 0.0228 0 -90 0 0 0 0.015 0 0 0 0 -0.0067 0.0925 -0.0113 -45 0 0 0 0.0247 0 -80 0 0 0 0.0221 0 -90 0 0 0 0.018 0 0 0 0 -0.0066 0.0935 -0.0272 -45 0 0 0 0.0163 0 -80 0 0 0 0.0171 0 -90 0 0 0 0.018 0 0 0 0 -2.98023e-06 35.2446 -2.38419e-05 37.8544 -8.32429e-06 -6.06839 -21.7867 5.96046e-06 0 29.4316 35.9676 5.4137 -20.6561 0 0 -3.27591e-07 8.78421e-06 94.2716 -23.3445 1.19209e-05 0 -20.0312 0.699458 -18.101 -0.0062 0.0497 0.0339 45 0 0 0 0.0215 0 0 -45 0 0 0.022 0 0 -45 0 0 0.017 0 0 0 0 0.0068 0.0873 0.0207 45 0 0 0 0.0267 0 80 0 0 0 0.0213 0 90 0 0 0 0.018 0 0 0 0 0.0067 0.0922 0.0055 45 0 0 0 0.0266 0 80 0 0 0 0.0228 0 90 0 0 0 0.015 0 0 0 0 0.0067 0.0925 -0.0113 45 0 0 0 0.0247 0 80 0 0 0 0.0221 0 90 0 0 0 0.018 0 0 0 0 0.0066 0.0935 -0.0272 45 0 0 0 0.0163 0 80 0 0 0 0.0171 0 90 0 0 0 0.018 0 0 0 0 -2.98023e-06 35.2446 -2.38419e-05 11.1596 0.915221 -0.180542 5.96046e-06 15.9813 2.38419e-05 1.18995e-05 -1.02453e-05 1.70755e-06 
15.3453 21.5425 -252.91 4.86687 42.5433 -12.1905 6.85816 -5.37765 3.90627 17.5878 -63.9296 20.6697 -2.98023e-06 -45.9209 7.15256e-05 -5.18583 27.6828 0 5.21541e-06 -39.4291 0 -0.861706 -18.3845 -0.671881 -6.64002 -5.34849 5.4811 1.10279 -38.3678 2.98766 4.47035e-06 -45.6037 -4.76837e-05 11.3741 20.106 3.63672e-06 -8.9407e-06 -35.9071 2.38419e-05 -10.7231 1.09894 -5.81041 -2.98023e-06 4.62855 -4.62854 0.582412 -39.4154 0.863075 -8.9407e-06 35.2446 -2.38419e-05 -36.7505 1.36604e-05 6.60556 18.5287 1.19209e-05 -2.38419e-05 -37.1946 38.385 10.3644 20.5931 1.19209e-05 2.38419e-05 -3.06734e-05 2.22058e-06 -104.873 26.8859 -1.19209e-05 -7.45058e-06 9.71594 -0.35933 -14.5514 0.0062 0.0497 0.0339 -45 0 0 0 0.0215 0 0 -45 0 0 0.022 0 0 -45 0 0 0.017 0 0 0 0 -0.0068 0.0873 0.0207 -45 0 0 0 0.0267 0 -80 0 0 0 0.0213 0 -90 0 0 0 0.018 0 0 0 0 -0.0067 0.0922 0.0055 -45 0 0 0 0.0266 0 -80 0 0 0 0.0228 0 -90 0 0 0 0.015 0 0 0 0 -0.0067 0.0925 -0.0113 -45 0 0 0 0.0247 0 -80 0 0 0 0.0221 0 -90 0 0 0 0.018 0 0 0 0 -0.0066 0.0935 -0.0272 -45 0 0 0 0.0163 0 -80 0 0 0 0.0171 0 -90 0 0 0 0.018 0 0 0 0 -8.9407e-06 35.2446 -2.38419e-05 38.5527 -2.34788e-06 -5.59469 -21.8628 0 0 25.568 34.2609 7.03493 -20.846 1.78814e-05 0 -0.000205105 6.44811e-06 93.5453 -23.5869 0 -7.45058e-06 -18.9071 0.633911 -18.8864 -0.0062 0.0497 0.0339 45 0 0 0 0.0215 0 0 -45 0 0 0.022 0 0 -45 0 0 0.017 0 0 0 0 0.0068 0.0873 0.0207 45 0 0 0 0.0267 0 80 0 0 0 0.0213 0 90 0 0 0 0.018 0 0 0 0 0.0067 0.0922 0.0055 45 0 0 0 0.0266 0 80 0 0 0 0.0228 0 90 0 0 0 0.015 0 0 0 0 0.0067 0.0925 -0.0113 45 0 0 0 0.0247 0 80 0 0 0 0.0221 0 90 0 0 0 0.018 0 0 0 0 0.0066 0.0935 -0.0272 45 0 0 0 0.0163 0 80 0 0 0 0.0171 0 90 0 0 0 0.018 0 0 0 0 -8.9407e-06 35.2446 -2.38419e-05 11.2931 -0.0433604 0.00865556 -1.49012e-06 15.3975 2.38419e-05 7.68397e-06 -1.02453e-05 2.56132e-06 
15.7857 20.8345 -254.473 4.54926 44.1164 -11.1849 6.87662 -5.19328 3.96744 21.989 -68.8747 25.2169 2.98023e-06 -45.2586 7.15256e-05 -5.99359 32.6504 0 5.96046e-06 -39.5218 -4.76837e-05 -0.734819 -16.1943 -0.569494 -6.6708 -5.38585 5.55944 1.06335 -39.4819 2.82256 0 -44.7361 0 11.7765 18.0986 1.79643e-06 0 -34.5972 0 -10.5112 -2.39608 -6.27118 -2.98023e-06 4.58933 -4.58937 0.65054 -40.0593 0.834196 2.98023e-06 35.2446 0 -37.3914 4.26887e-06 5.92922 18.6843 -4.47035e-06 0 -36.669 37.765 10.6788 20.3995 3.57628e-05 0 1.35114e-05 -1.21269e-06 -104.011 26.9347 1.19209e-05 -7.82311e-06 9.22747 -0.457079 -17.9686 0.0062 0.0497 0.0339 -45 0 0 0 0.0215 0 0 -45 0 0 0.022 0 0 -45 0 0 0.017 0 0 0 0 -0.0068 0.0873 0.0207 -45 0 0 0 0.0267 0 -80 0 0 0 0.0213 0 -90 0 0 0 0.018 0 0 0 0 -0.0067 0.0922 0.0055 -45 0 0 0 0.0266 0 -80 0 0 0 0.0228 0 -90 0 0 0 0.015 0 0 0 0 -0.0067 0.0925 -0.0113 -45 0 0 0 0.0247 0 -80 0 0 0 0.0221 0 -90 0 0 0 0.018 0 0 0 0 -0.0066 0.0935 -0.0272 -45 0 0 0 0.0163 0 -80 0 0 0 0.0171 0 -90 0 0 0 0.018 0 0 0 0 2.98023e-06 35.2446 0 38.8744 -8.64446e-06 -5.06312 -21.8699 -2.98023e-06 -2.38419e-05 21.1637 31.6145 8.5044 -20.9215 5.96046e-06 2.38419e-05 -0.00016392 -2.10557e-07 92.4092 -22.6864 1.78814e-05 -1.49012e-06 -12.3511 0.152673 -16.2798 -0.0062 0.0497 0.0339 45 0 0 0 0.0215 0 0 -45 0 0 0.022 0 0 -45 0 0 0.017 0 0 0 0 0.0068 0.0873 0.0207 45 0 0 0 0.0267 0 80 0 0 0 0.0213 0 90 0 0 0 0.018 0 0 0 0 0.0067 0.0922 0.0055 45 0 0 0 0.0266 0 80 0 0 0 0.0228 0 90 0 0 0 0.015 0 0 0 0 0.0067 0.0925 -0.0113 45 0 0 0 0.0247 0 80 0 0 0 0.0221 0 90 0 0 0 0.018 0 0 0 0 0.0066 0.0935 -0.0272 45 0 0 0 0.0163 0 80 0 0 0 0.0171 0 90 0 0 0 0.018 0 0 0 0 2.98023e-06 35.2446 0 11.2912 -1.21088 0.241748 -8.19564e-06 14.9184 0 1.22463e-05 -1.08856e-05 -8.53774e-07 
16.1691 20.4803 -255.563 4.45888 45.3408 -10.5199 6.89339 -5.07842 4.04024 26.6935 -72.2346 30.2638 -2.98023e-06 -44.889 4.76837e-05 -6.61405 35.947 1.31827e-06 -1.04308e-05 -40.2528 2.38419e-05 -0.401891 -13.6222 -0.314561 -6.70206 -5.38893 5.65922 1.04319 -40.0333 2.96422 0 -44.2019 0 11.532 16.5825 0 2.98023e-06 -33.8493 9.53674e-05 -9.88919 -7.07688 -6.6091 0 4.56524 -4.56535 0.674855 -40.8476 0.757525 0 35.2446 -4.76837e-05 -37.6914 1.53679e-05 5.60026 18.8391 -4.47035e-06 0 -37.4492 36.9916 12.356 20.2901 0 -4.76837e-05 2.71779e-05 -1.18765e-06 -103.716 26.9583 0 2.98023e-06 7.67789 -0.438507 -21.6136 0.0062 0.0497 0.0339 -45 0 0 0 0.0215 0 0 -45 0 0 0.022 0 0 -45 0 0 0.017 0 0 0 0 -0.0068 0.0873 0.0207 -45 0 0 0 0.0267 0 -80 0 0 0 0.0213 0 -90 0 0 0 0.018 0 0 0 0 -0.0067 0.0922 0.0055 -45 0 0 0 0.0266 0 -80 0 0 0 0.0228 0 -90 0 0 0 0.015 0 0 0 0 -0.0067 0.0925 -0.0113 -45 0 0 0 0.0247 0 -80 0 0 0 0.0221 0 -90 0 0 0 0.018 0 0 0 0 -0.0066 0.0935 -0.0272 -45 0 0 0 0.0163 0 -80 0 0 0 0.0171 0 -90 0 0 0 0.018 0 0 0 0 0 35.2446 -4.76837e-05 38.7538 -4.21551e-06 -4.83816 -21.7978 0 0 17.9053 31.2551 8.96889 -21.1609 2.38419e-05 4.76837e-05 -0.000136824 6.76849e-06 93.7217 -22.8479 1.78814e-05 0 -5.22826 -0.267767 -13.2115 -0.0062 0.0497 0.0339 45 0 0 0 0.0215 0 0 -45 0 0 0.022 0 0 -45 0 0 0.017 0 0 0 0 0.0068 0.0873 0.0207 45 0 0 0 0.0267 0 80 0 0 0 0.0213 0 90 0 0 0 0.018 0 0 0 0 0.0067 0.0922 0.0055 45 0 0 0 0.0266 0 80 0 0 0 0.0228 0 90 0 0 0 0.015 0 0 0 0 0.0067 0.0925 -0.0113 45 0 0 0 0.0247 0 80 0 0 0 0.0221 0 90 0 0 0 0.018 0 0 0 0 0.0066 0.0935 -0.0272 45 0 0 0 0.0163 0 80 0 0 0 0.0171 0 90 0 0 0 0.018 0 0 0 0 0 35.2446 -4.76837e-05 11.0037 -1.69342 0.329229 -6.70552e-06 14.5969 4.76837e-05 8.11085e-06 -1.00318e-05 0 
